<svg width="253" height="52" viewBox="0 0 253 52" fill="none" xmlns="http://www.w3.org/2000/svg">
<path d="M148.358 9.22409C139.96 9.22409 133.147 16.0627 133.147 24.4916C133.147 32.9205 139.96 39.759 148.358 39.759C156.756 39.759 163.569 32.9205 163.569 24.4916C163.569 16.0627 156.756 9.22409 148.358 9.22409ZM148.358 33.6626C143.341 33.6626 139.221 29.5807 139.221 24.4916C139.221 19.4554 143.288 15.3205 148.358 15.3205C153.375 15.3205 157.495 19.4024 157.495 24.4916C157.495 29.5807 153.375 33.6626 148.358 33.6626Z" fill="white"/>
<path d="M57.9911 12.2988C55.456 10.3904 52.2871 9.27711 48.8541 9.27711C40.4565 9.27711 33.6433 16.1157 33.6433 24.5446C33.6433 32.9735 40.4565 39.812 48.8541 39.812C52.2871 39.812 55.456 38.6988 57.9911 36.7904V39.812H64.0649V9.22409H57.9911V12.2988ZM48.8541 33.6626C43.8366 33.6626 39.717 29.5807 39.717 24.4916C39.717 19.4554 43.7838 15.3205 48.8541 15.3205C53.8715 15.3205 57.9911 19.4024 57.9911 24.4916C57.9911 29.5807 53.9243 33.6626 48.8541 33.6626Z" fill="white"/>
<path d="M178.938 9.22409C172.178 9.22409 166.738 14.6843 166.738 21.4699V39.812H172.811V21.4169C172.811 18.0241 175.558 15.3205 178.885 15.3205C182.213 15.3205 184.959 18.0771 184.959 21.4169V39.759H191.033V21.4169C191.138 14.6843 185.646 9.22409 178.938 9.22409Z" fill="white"/>
<path d="M246.172 9.22409V21.4699C246.172 21.4699 246.172 24.3325 246.172 27.5663C246.172 30.959 243.425 33.6626 240.098 33.6626C236.771 33.6626 234.024 30.906 234.024 27.5663V9.22409H227.951V27.5663C227.951 34.3518 233.39 39.812 240.151 39.812C242.316 39.812 244.323 39.2289 246.119 38.2747C245.38 42.6217 241.63 45.9084 237.14 45.9084V52.0048C245.538 52.0048 252.351 45.1663 252.351 36.7373V27.5663V21.4169V9.22409H246.172Z" fill="white"/>
<path d="M117.778 9.22409C114.134 9.22409 110.859 10.8145 108.641 13.359C106.423 10.8145 103.148 9.22409 99.5039 9.22409C92.7435 9.22409 87.3036 14.6843 87.3036 21.4699V39.812H93.3773V21.4169C93.3773 18.0241 96.1237 15.3205 99.4511 15.3205C102.831 15.3205 105.525 18.0771 105.525 21.4169V39.759H111.599V21.4169C111.599 18.0241 114.345 15.3205 117.672 15.3205C121 15.3205 123.746 18.0771 123.746 21.4169V39.759H129.82V21.4169C129.978 14.6843 124.485 9.22409 117.778 9.22409Z" fill="white"/>
<path d="M209.518 9.22409C201.12 9.22409 194.307 16.0627 194.307 24.4916C194.307 32.9205 201.12 39.759 209.518 39.759C213.902 39.759 217.863 37.9036 220.662 34.8819L216.384 30.588H216.331C214.641 32.4434 212.264 33.6626 209.518 33.6626C205.557 33.6626 202.177 31.1181 200.909 27.5663H218.127H222.141H224.465C224.676 26.559 224.782 25.5518 224.782 24.5446C224.729 16.0626 217.916 9.22409 209.518 9.22409ZM209.518 15.3735C213.479 15.3735 216.859 17.9181 218.074 21.4699H200.909C202.177 17.9181 205.557 15.3735 209.518 15.3735Z" fill="white"/>
<path d="M30.4744 0H24.4006V6.09638H30.4744V0Z" fill="#72ECFF"/>
<path d="M18.2741 9.22409H12.2003C9.98208 9.22409 7.92228 9.80723 6.12656 10.8675V0H0V21.4169V24.4916V39.812H6.12656V24.4916V21.4169C6.12656 18.0241 8.87296 15.3205 12.2003 15.3205H18.2741C21.6542 15.3205 24.3478 18.0771 24.3478 21.4169V39.759H30.4216V21.4169C30.4744 14.6843 25.0344 9.22409 18.2741 9.22409Z" fill="white"/>
<path d="M84.0818 9.22409C80.6488 9.22409 77.4799 10.3373 74.9448 12.2988V9.22409H68.871V39.812H74.9448V26.612V24.5446C74.9448 19.5084 79.0116 15.3735 84.0818 15.3735H84.9797V9.22409H84.0818Z" fill="white"/>
</svg>
